# xmcd CD database file
#
# Track frame offsets:
#	150
#	14752
#	27507
#	42522
#	55297
#	68882
#	85425
#	101927
#	114040
#	123665
#	137270
#	156382
#	174367
#	195860
#
# Disc length: 2725 seconds
#
# Revision: 8
# Processed by: cddbd v1.5.2PL0 Copyright (c) Steve Scherf et al.
# Submitted via: CDex 1.70beta3
#
DISCID=c00aa30e
DTITLE=THE HIGH-LOWS - BAUMKUCHEN
DYEAR=1999
DGENRE=Rock
TTITLE0=罪と罰
TTITLE1=チェンジングマン
TTITLE2=二匹のマシンガン
TTITLE3=モンシロチョウ
TTITLE4=ハスキー (欲望という名の戦車)
TTITLE5=ダセー
TTITLE6=見送り
TTITLE7=死人
TTITLE8=彼女はパンク
TTITLE9=ガンスリンガー
TTITLE10=21世紀のフランケンシュタイン
TTITLE11=ガタガタゴー
TTITLE12=笑ってあげる
TTITLE13=バームクーヘン
EXTD=YEAR: 1999
EXTT0=
EXTT1=
EXTT2=
EXTT3=
EXTT4=
EXTT5=
EXTT6=
EXTT7=
EXTT8=
EXTT9=
EXTT10=
EXTT11=
EXTT12=
EXTT13=
PLAYORDER=
